<svg xmlns="http://www.w3.org/2000/svg" viewBox="0 0 1000 96" font-family="Roboto,sans-serif" font-size="11"><text x="0" y="32" fill="#888">hot_water</text><rect x="193.3" y="20" width="9.2" height="16" fill="#03a9f4"/><rect x="202.5" y="20" width="9.2" height="16" fill="#03a9f4"/><rect x="211.7" y="20" width="9.2" height="16" fill="#03a9f4"/><rect x="523.3" y="20" width="9.2" height="16" fill="#4caf50"/><rect x="532.5" y="20" width="9.2" height="16" fill="#4caf50"/><rect x="541.7" y="20" width="9.2" height="16" fill="#4caf50"/><rect x="550.8" y="20" width="9.2" height="16" fill="#4caf50"/><text x="0" y="54" fill="#888">dehumidifier</text><rect x="633.3" y="42" width="9.2" height="16" fill="#03a9f4"/><rect x="642.5" y="42" width="9.2" height="16" fill="#03a9f4"/><text x="0" y="76" fill="#888">aircon</text><rect x="596.7" y="64" width="9.2" height="16" fill="#4caf50"/><rect x="605.8" y="64" width="9.2" height="16" fill="#4caf50"/><rect x="615.0" y="64" width="9.2" height="16" fill="#4caf50"/><rect x="624.2" y="64" width="9.2" height="16" fill="#4caf50"/><rect x="780.0" y="64" width="9.2" height="16" fill="#03a9f4"/><rect x="789.2" y="64" width="9.2" height="16" fill="#03a9f4"/><rect x="798.3" y="64" width="9.2" height="16" fill="#03a9f4"/><rect x="807.5" y="64" width="9.2" height="16" fill="#03a9f4"/></svg>
